<svg width="24" height="26" viewBox="0 0 24 26" fill="none" xmlns="http://www.w3.org/2000/svg">
<path d="M19.9731 10.2027L22.5939 21.1956C22.6853 21.5788 22.4561 21.9516 22.0729 22.043L8.38872 25.3055C8.00552 25.3968 7.63272 25.1675 7.54139 24.7844L5.17498 14.8588C5.11625 14.6125 5.20086 14.3609 5.3768 14.1888L6.96965 12.6811C7.06284 12.5865 7.17948 12.5298 7.28891 12.5037L10.231 11.8023L12.7013 13.0644L14.3363 10.8235L19.1257 9.68163C19.5089 9.59027 19.8817 9.81951 19.9731 10.2027Z" fill="#61FF9E"/>
<path d="M19.9731 10.2027L22.5939 21.1956C22.6853 21.5788 22.4561 21.9516 22.0729 22.043L15.2308 23.6742L12.7013 13.0644L14.3363 10.8235L19.1257 9.68163C19.5089 9.59027 19.8817 9.81951 19.9731 10.2027Z" fill="#00CF91"/>
<path d="M10.4565 1.58655C10.2811 1.39693 10.068 1.23086 9.85418 1.12266C9.4442 0.858854 8.97827 0.724133 8.49729 0.708694C7.74 0.686777 7.02394 0.958729 6.4825 1.47824C5.72744 2.19345 5.43258 3.26152 5.70134 4.26768C5.74765 4.40126 6.30109 6.41933 6.30109 6.41933C6.13099 6.37311 4.33935 5.77341 4.33935 5.77341C4.14188 5.73372 2.68851 5.09681 1.38162 6.34837C0.840199 6.86798 0.528899 7.56401 0.503673 8.30763C0.481801 9.06492 0.7538 9.78097 1.27327 10.3224C2.33908 11.4566 4.12668 11.4932 5.24724 10.4306L6.76635 8.99356L4.27323 9.41504C4.09495 9.58201 3.87714 9.69945 3.64182 9.75555C3.1527 9.87217 2.63775 9.72026 2.29798 9.35849C2.02932 9.07863 1.89878 8.73268 1.90964 8.34878C1.92252 7.9792 2.0808 7.62725 2.35558 7.36399C2.54755 7.17982 2.74488 7.06567 2.95803 7.01486C3.31218 6.93042 3.64673 7.03356 3.82592 7.08898L3.92456 7.11772C4.1709 7.20024 5.76784 7.73181 5.93096 7.77627L5.9891 7.79206L5.97907 7.80154L5.9982 7.79784L7.86867 8.36423L7.68772 6.18987L7.68968 6.16313L7.65749 6.04629C7.65749 6.04629 7.0776 3.94279 7.02882 3.8033C6.92367 3.3948 7.07348 2.85628 7.4496 2.49969C7.63297 2.32394 7.84282 2.20892 8.07933 2.15253C8.20094 2.12354 8.32785 2.11093 8.45726 2.11469C8.69141 2.1224 8.90798 2.18661 9.09327 2.30624L9.21927 2.37859C9.26569 2.40141 9.34619 2.4578 9.42242 2.54057C9.88174 3.01576 9.95585 3.77388 9.60937 4.31691C9.55129 4.40205 9.47125 4.49885 9.3945 4.5708L9.33585 4.62629L9.55494 6.35543L10.3567 5.59693C10.5222 5.44178 10.6675 5.26251 10.7958 5.07289C11.4695 4.01569 11.3776 2.53837 10.4565 1.58655Z" fill="white"/>
<path d="M10.231 11.8023L12.0363 19.3741C12.1015 19.6478 12.3245 19.855 12.6106 19.9024C12.883 19.9532 13.171 19.8267 13.3136 19.5757L13.9943 18.4879L15.0926 19.1516C15.3331 19.3112 15.6472 19.2942 15.8674 19.126C16.1013 18.9545 16.2068 18.6691 16.1415 18.3954L14.3363 10.8235L10.231 11.8023Z" fill="white"/>
<path d="M22.6241 5.95518L21.9399 6.1183L21.7768 5.43409C21.6866 5.05591 21.3076 4.82285 20.9294 4.91301C20.5513 5.00318 20.3182 5.38216 20.4084 5.76034L20.5715 6.44455L19.8873 6.60768C19.5091 6.69784 19.276 7.07682 19.3662 7.45501C19.4564 7.83319 19.8353 8.06626 20.2135 7.97609L20.8977 7.81297L21.0609 8.49717C21.151 8.87536 21.53 9.10842 21.9082 9.01826C22.2864 8.92809 22.5194 8.54911 22.4293 8.17092L22.2662 7.48672L22.9504 7.32359C23.3285 7.23343 23.5616 6.85444 23.4714 6.47626C23.3813 6.09808 23.0023 5.86501 22.6241 5.95518Z" fill="white"/>
<path d="M19.1892 3.88172C19.567 3.79163 19.8003 3.41227 19.7102 3.03439C19.6202 2.65651 19.2408 2.42322 18.8629 2.51331C18.485 2.6034 18.2517 2.98276 18.3418 3.36064C18.4319 3.73852 18.8113 3.97181 19.1892 3.88172Z" fill="white"/>
<path d="M17.4311 8.63946C17.809 8.54937 18.0423 8.17001 17.9522 7.79213C17.8621 7.41426 17.4827 7.18096 17.1048 7.27105C16.727 7.36114 16.4937 7.7405 16.5838 8.11838C16.6738 8.49626 17.0532 8.72956 17.4311 8.63946Z" fill="white"/>
<path d="M12.2837 11.3129L14.3363 10.8235L16.1415 18.3954C16.2068 18.6691 16.1013 18.9545 15.8674 19.126C15.6472 19.2942 15.3331 19.3112 15.0926 19.1516L13.9943 18.4879L12.2837 11.3129Z" fill="white"/>
<path d="M10.7958 5.07289L9.85418 1.12266C10.068 1.23086 10.2811 1.39693 10.4565 1.58655C11.3776 2.53837 11.4695 4.01569 10.7958 5.07289Z" fill="white"/>
<path d="M16.8713 4.28967L13.9704 1.22117C13.7005 0.938423 13.2502 0.930087 12.9675 1.19997L10.4436 3.59497L0.707149 12.8002C0.421142 13.0564 0.367192 13.5176 0.63707 13.8004L3.58355 16.858C3.85344 17.1408 4.29006 17.1523 4.57279 16.8824L11.9476 9.90341L16.8331 5.28218C17.1159 5.0124 17.1275 4.57576 16.8713 4.28967Z" fill="#00CF91"/>
<path d="M16.8331 5.28218L11.9476 9.90341L10.4436 3.59497L12.9675 1.19997C13.2502 0.930087 13.7005 0.938423 13.9704 1.22117L16.8713 4.28967C17.1275 4.57576 17.1159 5.0124 16.8331 5.28218Z" fill="#61FF9E"/>
</svg>
